<?xml version="1.0" encoding="utf-8"?>
<!DOCTYPE svg PUBLIC "-//W3C//DTD SVG 1.1//EN" "http://www.w3.org/Graphics/SVG/1.1/DTD/svg11.dtd">
<svg version="1.1" xmlns="http://www.w3.org/2000/svg" xmlns:xlink="http://www.w3.org/1999/xlink"
  viewBox="0 0 274 34" enable-background="new 0 0 274 34" xml:space="preserve">
  <path d="M122.05,0c-1.63,0-3.12,0.78-3.98,2.08l-20.4,31.94l7.64-0.01l16.76-26.6l9.13,14.71h-17.28l3.82,5.94h17.51l3.59,5.95
    l7.64,0.01l-20.47-32C125.12,0.76,123.65,0,122.05,0z M37.42,0.33H17.84C8.54,0.33,1,7.87,1,17.17c0,9.3,7.54,16.84,16.84,16.84
    l19.58,0.01c9.3,0,16.84-7.54,16.84-16.84C54.26,7.87,46.72,0.33,37.42,0.33z M36.98,28.08H18.28c-6.02,0-10.9-4.88-10.9-10.9
    c0-6.02,4.88-10.91,10.9-10.91l18.71,0c6.02,0,10.9,4.88,10.9,10.9C47.88,23.2,43.01,28.08,36.98,28.08z M149.51,17.17
    c0-6.02,4.88-10.91,10.91-10.91l19.01,0l3.81-5.94h-23.26c-9.3,0-16.84,7.54-16.84,16.84c0,9.3,7.55,16.84,16.84,16.84h19.99
    l3.8-5.93h-23.35C154.39,28.08,149.51,23.2,149.51,17.17z M97.43,11.72c0-6.29-5.1-11.39-11.39-11.39H57.7v33.68h6.47V6.27H85.6
    c3.02,0,5.45,2.44,5.45,5.45c0,3.01-2.43,5.45-5.45,5.45l-18.25-0.01l19.33,16.84h9.41l-13-10.91l2.96,0.01
    C92.33,23.11,97.43,18.01,97.43,11.72z M193.2,0.33h-6.48v30.45c0,0.84,0.34,1.65,0.94,2.25c0.63,0.63,1.47,0.98,2.37,0.98h29.54
    l3.81-5.94H193.2V0.33z M228.72,20.15h27.68l3.81-5.94l-31.51,0c1.29-4.58,5.5-7.94,10.5-7.94l19,0l3.82-5.94h-23.26
    c-9.3,0-16.84,7.54-16.84,16.84c0,9.3,7.54,16.84,16.84,16.84h19.98l3.81-5.93H239.2C234.22,28.08,230,24.73,228.72,20.15z
     M268.47,0.15c-2.09,0-3.78,1.69-3.78,3.79c0,2.09,1.69,3.79,3.78,3.79c2.09,0,3.79-1.7,3.79-3.79
    C272.26,1.84,270.56,0.15,268.47,0.15z M268.47,6.9c-1.64,0-2.97-1.33-2.97-2.98c0-1.64,1.33-2.97,2.97-2.97
    c1.65,0,2.97,1.33,2.97,2.97C271.44,5.57,270.12,6.9,268.47,6.9z M269.48,4.06c0.39-0.24,0.48-0.57,0.53-0.73
    c0.04-0.15,0.04-0.3,0.04-0.35c0-0.25-0.08-0.94-0.82-1.19c-0.29-0.11-0.53-0.11-1.11-0.11h-1.07v4.24h0.83V4.3h0.58l0.86,1.62
    h0.95l-0.99-1.76C269.41,4.12,269.43,4.1,269.48,4.06z M269.12,3.34c-0.17,0.24-0.45,0.26-0.71,0.26h-0.53V2.38h0.24
    c0.39,0,0.59,0,0.78,0.07c0.2,0.1,0.32,0.29,0.32,0.52C269.21,3.12,269.18,3.23,269.12,3.34z"/>
</svg>
